# xmcd
#
# Track frame offsets:
#	150
#	24502
#	42933
#	63085
#	116544
#	148562
#	167547
#	189261
#	210503
#	243157
#	267946
#	295505
#
# Disc length: 4313 seconds
# Revision: 0
# Processed by: cddbd v1.5.2PL0 Copyright (c) Steve Scherf et al.
# Submitted via: dBpowerAMP V12.0
#
DISCID=9a10d70c
DTITLE=Robben Ford - Live At Rockpalast - 2007  cd1
DYEAR=2014
DGENRE=Blues
TTITLE0=How Deep In The Blues (Do You Want To Go)
TTITLE1=Lateral Climb
TTITLE2=Indianola
TTITLE3=The Way You Treated Me
TTITLE4=Riley B.King
TTITLE5=Don't Deny Your Love
TTITLE6=Cannonball Shuffle
TTITLE7=Too Much
TTITLE8=Peace On My Mind
TTITLE9=Lovin' Cup
TTITLE10=Supernatural
TTITLE11=There'll Never Be Another You
EXTD=
EXTT0=
EXTT1=
EXTT2=
EXTT3=
EXTT4=
EXTT5=
EXTT6=
EXTT7=
EXTT8=
EXTT9=
EXTT10=
EXTT11=
PLAYORDER=
